Coordinates
version=1
nRows=12
nColumns=24
inDegrees=yes

Units are S.I. units (second, meters, Newtons, ...)
Angles are in degrees.

endheader
time	pelvis_tilt	pelvis_list	pelvis_rotation	pelvis_tx	pelvis_ty	pelvis_tz	hip_flexion_r	hip_adduction_r	hip_rotation_r	knee_angle_r	ankle_angle_r	subtalar_angle_r	mtp_angle_r	hip_flexion_l	hip_adduction_l	hip_rotation_l	knee_angle_l	ankle_angle_l	subtalar_angle_l	mtp_angle_l	lumbar_extension	lumbar_bending	lumbar_rotation
      1.39600000	      3.62678766	      4.04373687	     -4.05830719	      0.24991304	      1.02608907	      0.32045088	      9.80810702	     -3.80019833	      1.18819952	    -60.86995223	      4.01477522	    -18.26085004	      2.67651840	      2.77663426	      8.63696727	      0.41017101	    -10.26617506	      2.63927371	    -15.60936377	      2.53526948	     -6.73294502	     -6.24492241	      6.21509842
      1.40016667	      3.61637093	      3.90519067	     -3.90923315	      0.25492372	      1.02680031	      0.32033761	     10.25174017	     -3.60647601	      1.13658348	    -60.23303117	      4.26086932	    -18.16805942	      2.61116710	      2.26561739	      8.51107108	      0.59675519	     -9.89515245	      2.72119085	    -15.56771771	      2.48203474	     -6.75861491	     -6.09701031	      6.02143031
      1.40433333	      3.61661091	      3.78373056	     -3.75633651	      0.25990503	      1.02746498	      0.32020314	     10.68253641	     -3.44148103	      1.07027875	    -59.57287849	      4.51392355	    -18.08069014	      2.52690760	      1.73068586	      8.40652121	      0.82146112	     -9.48658707	      2.76848662	    -15.57943204	      2.40789882	     -6.81053777	     -5.95234083	      5.68770923
      1.40850000	      3.62498447	      3.66067207	     -3.59712122	      0.26488289	      1.02810623	      0.32009248	     11.08758928	     -3.27388366	      0.99806192	    -58.86395014	      4.75596207	    -17.98801369	      2.45339905	      1.19481606	      8.29330389	      1.03100051	     -9.09347988	      2.81621805	    -15.57495739	      2.33802039	     -6.86540983	     -5.81924794	      5.40573374
      1.41266667	      3.62760334	      3.54177371	     -3.43034704	      0.26984812	      1.02870770	      0.31996943	     11.48737169	     -3.11555650	      0.91516134	    -58.11639696	      4.98762015	    -17.89410487	      2.38528222	      0.66634164	      8.18150815	      1.24643500	     -8.69659317	      2.85785703	    -15.57232175	      2.26839900	     -6.91416114	     -5.68777223	      5.10869418
      1.41683333	      3.62126947	      3.42161202	     -3.25928797	      0.27480581	      1.02925127	      0.31985822	     11.88505440	     -2.95584945	      0.82717840	    -57.33127160	      5.20177049	    -17.81116081	      2.31960152	      0.15210551	      8.06331124	      1.46332871	     -8.30736548	      2.89936123	    -15.56860551	      2.19673613	     -6.95477124	     -5.55764651	      4.80492699
      1.42100000	      3.61966091	      3.30732895	     -3.08584464	      0.27974372	      1.02975990	      0.31974800	     12.26835484	     -2.80818281	      0.72971844	    -56.51314459	      5.40671754	    -17.72136599	      2.25956514	     -0.36151619	      7.94759274	      1.67149039	     -7.92344515	      2.94456105	    -15.55648191	      2.12690000	     -7.00164944	     -5.43141735	      4.50699873
      1.42516667	      3.61532734	      3.19068375	     -2.90638008	      0.28467783	      1.03022551	      0.31963228	     12.64007911	     -2.66074655	      0.62625773	    -55.65615873	      5.59034673	    -17.64833270	      2.20326021	     -0.86781068	      7.82539579	      1.88179959	     -7.54615705	      2.99324468	    -15.54223586	      2.05890363	     -7.04603259	     -5.30438382	      4.20499413
      1.42933333	      3.57747665	      3.07280963	     -2.72369862	      0.28961179	      1.03060908	      0.31953337	     13.03509079	     -2.51164991	      0.51799818	    -54.76366611	      5.77694254	    -17.57100104	      2.17527862	     -1.31777432	      7.69254795	      2.04495865	     -7.20624016	      3.02954589	    -15.47634927	      2.02250246	     -7.04514859	     -5.17270388	      4.00761892
      1.43350000	      3.58776056	      2.97119683	     -2.54368725	      0.29451537	      1.03100287	      0.31942379	     13.37252886	     -2.39020372	      0.40430821	    -53.84795236	      5.91312197	    -17.52378716	      2.12107947	     -1.84065383	      7.58273541	      2.28364146	     -6.81858243	      3.09731323	    -15.49349688	      1.95401135	     -7.11290863	     -5.06448349	      3.59112333
      1.43766667	      3.54941619	      2.86190772	     -2.36025940	      0.29942488	      1.03129013	      0.31932744	     13.74861909	     -2.25949587	      0.28658779	    -52.89917031	      6.07183280	    -17.45469075	      2.09700506	     -2.27877290	      7.45311476	      2.43853609	     -6.49194746	      3.13728824	    -15.42515948	      1.92196219	     -7.11133893	     -4.93971085	      3.41299536
      1.44183333	      3.56793597	      2.76804727	     -2.18333517	      0.30429900	      1.03160333	      0.31924449	     14.05683297	     -2.15056680	      0.17064526	    -51.92802380	      6.18061737	    -17.43605283	      2.04075257	     -2.80121669	      7.34453278	      2.67173381	     -6.11308395	      3.19047875	    -15.44327976	      1.84894084	     -7.19656621	     -4.84548828	      2.99313289
